<svg width="21" height="17" viewBox="0 0 21 17" fill="none" xmlns="http://www.w3.org/2000/svg">
<path d="M4.98438 14.3047H11.7812L13.0391 15.5625H4.96094C3.33594 15.5625 2.50781 14.7578 2.50781 13.1406V11.2422C1.375 10.1172 0.671875 8.55469 0.671875 6.82812C0.671875 3.39062 3.46875 0.59375 6.90625 0.59375C7.85156 0.59375 8.74219 0.804688 9.54688 1.17969H18.4844C20.1172 1.17969 20.9375 1.99219 20.9375 3.60156V13.1406C20.9375 14.75 20.1172 15.5625 18.4844 15.5625H17.2578C17.2578 15.0781 17.0781 14.6406 16.75 14.3047H18.4609C19.2344 14.3047 19.6797 13.8906 19.6797 13.0781V3.66406C19.6797 2.85156 19.2344 2.4375 18.4609 2.4375H11.3281C12.4531 3.5625 13.1406 5.11719 13.1406 6.82812C13.1406 8.25 12.6641 9.55469 11.8594 10.6016L16.1562 14.9141C16.3125 15.0703 16.4062 15.3047 16.4062 15.5547C16.4062 16.0781 16.0391 16.4766 15.5078 16.4766C15.2656 16.4766 15.0391 16.3984 14.8516 16.2109L10.5312 11.8906C9.50781 12.625 8.26562 13.0625 6.90625 13.0625C5.76562 13.0625 4.6875 12.75 3.76562 12.2109V13.0781C3.76562 13.8906 4.20312 14.3047 4.98438 14.3047ZM2.00781 6.82812C2.00781 9.53125 4.20312 11.7266 6.90625 11.7266C9.61719 11.7266 11.8047 9.53125 11.8047 6.82812C11.8047 4.125 9.61719 1.92969 6.90625 1.92969C4.20312 1.92969 2.00781 4.125 2.00781 6.82812ZM4.42969 6.33594C4.11719 6.33594 3.89062 6.08594 3.89062 5.78125C3.89062 5.47656 4.11719 5.24219 4.42969 5.24219H9.38281C9.6875 5.24219 9.92969 5.47656 9.92969 5.78125C9.92969 6.08594 9.6875 6.33594 9.38281 6.33594H4.42969ZM4.42969 8.41406C4.11719 8.41406 3.89062 8.17969 3.89062 7.875C3.89062 7.57031 4.11719 7.32031 4.42969 7.32031H8.03125C8.33594 7.32031 8.57812 7.57031 8.57812 7.875C8.57812 8.17969 8.33594 8.41406 8.03125 8.41406H4.42969Z" fill="black"/>
</svg>
