<svg width="15" height="20" viewBox="0 0 15 20" fill="none" xmlns="http://www.w3.org/2000/svg">
<path d="M4.7793 4.71289C4.60775 4.71289 4.46387 4.65755 4.34766 4.54688C4.23698 4.4362 4.18164 4.29785 4.18164 4.13184C4.18164 3.97135 4.24805 3.82471 4.38086 3.69189L7.11182 1.05225C7.20036 0.969238 7.2806 0.9139 7.35254 0.88623C7.43001 0.853027 7.51025 0.836426 7.59326 0.836426C7.6818 0.836426 7.76204 0.853027 7.83398 0.88623C7.91146 0.9139 7.9917 0.969238 8.07471 1.05225L10.814 3.69189C10.9412 3.82471 11.0049 3.97135 11.0049 4.13184C11.0049 4.29785 10.9468 4.4362 10.8306 4.54688C10.7144 4.65755 10.5705 4.71289 10.3989 4.71289C10.2163 4.71289 10.0669 4.64648 9.95068 4.51367L8.67236 3.14404L7.59326 1.99854L6.52246 3.14404L5.23584 4.51367C5.11963 4.64648 4.96745 4.71289 4.7793 4.71289ZM7.59326 12.9805C7.41618 12.9805 7.26123 12.9168 7.12842 12.7896C7.00114 12.6623 6.9375 12.5129 6.9375 12.3413V3.89111L7.03711 1.6582C7.04818 1.50326 7.10628 1.37321 7.21143 1.26807C7.31657 1.15739 7.44385 1.10205 7.59326 1.10205C7.74821 1.10205 7.87826 1.15739 7.9834 1.26807C8.08854 1.37321 8.14665 1.50326 8.15771 1.6582L8.25732 3.89111V12.3413C8.25732 12.5129 8.19092 12.6623 8.05811 12.7896C7.93083 12.9168 7.77588 12.9805 7.59326 12.9805ZM3.7002 19.48C2.58789 19.48 1.73014 19.1784 1.12695 18.5752C0.529297 17.9775 0.230469 17.1226 0.230469 16.0103V9.61865C0.230469 8.50081 0.529297 7.64307 1.12695 7.04541C1.73014 6.44775 2.58789 6.14893 3.7002 6.14893H5.37695V7.48535H3.7002C3.01953 7.48535 2.49382 7.67074 2.12305 8.0415C1.75228 8.40674 1.56689 8.93245 1.56689 9.61865V16.0103C1.56689 16.6909 1.75228 17.2166 2.12305 17.5874C2.49382 17.9582 3.01953 18.1436 3.7002 18.1436H11.4863C12.1725 18.1436 12.701 17.9582 13.0718 17.5874C13.4425 17.2166 13.6279 16.6909 13.6279 16.0103V9.61865C13.6279 8.93245 13.4425 8.40674 13.0718 8.0415C12.701 7.67074 12.1725 7.48535 11.4863 7.48535H9.80957V6.14893H11.4863C12.6042 6.14893 13.4619 6.44775 14.0596 7.04541C14.6628 7.64307 14.9644 8.50081 14.9644 9.61865V16.0103C14.9644 17.1226 14.6628 17.9775 14.0596 18.5752C13.4619 19.1784 12.6042 19.48 11.4863 19.48H3.7002Z" fill="#3366CC"/>
</svg>
