<svg width="17" height="18" viewBox="0 0 17 18" fill="none" xmlns="http://www.w3.org/2000/svg">
<g clip-path="url(#clip0_5275_9284)">
<path d="M16.4629 5.51398C16.4629 2.96907 14.8056 0.840452 12.8026 0.840452H10.297C9.29941 0.314187 8.08979 0 6.73879 0H5.68626C4.74369 0 3.92681 0.0549828 3.38484 0.196367C2.33231 0.447717 1.67251 1.18606 1.67251 2.11292C1.67251 2.30142 1.70393 2.48208 1.75106 2.64703C1.23265 3.04762 0.942027 3.61315 0.942027 4.24938C0.942027 4.55572 0.997009 4.8542 1.11483 5.10555C0.761369 5.46687 0.557147 5.99313 0.557147 6.54295C0.557147 6.89642 0.651404 7.27343 0.800642 7.54835C0.588566 7.85468 0.462891 8.2867 0.462891 8.73442C0.462891 9.87335 1.35047 10.7688 2.48154 10.7688H5.34851C5.52131 10.7688 5.63127 10.8473 5.63127 10.9966C5.63127 11.8135 4.34311 13.73 4.34311 15.2695C4.34311 16.3299 5.08144 17.0839 6.09471 17.0839C6.84089 17.0839 7.34359 16.6991 7.83059 15.7565C8.75744 13.9814 9.85709 12.4026 11.648 10.219H13.0854C14.9548 10.219 16.4629 8.10603 16.4629 5.51398ZM12.0407 5.55327C12.0407 7.1949 11.6715 8.23957 10.6504 9.61413C9.51149 11.1301 7.92484 12.9602 6.79377 15.2224C6.50314 15.7879 6.32249 15.9215 6.04757 15.9215C5.72552 15.9215 5.50561 15.6937 5.50561 15.2695C5.50561 14.0363 6.79377 12.1826 6.79377 10.9966C6.79377 10.1326 6.08684 9.60628 5.18356 9.60628H2.48154C1.99455 9.60628 1.62538 9.23712 1.62538 8.73442C1.62538 8.3731 1.73535 8.14532 2.03383 7.85468C2.17521 7.72902 2.19092 7.56407 2.07311 7.42268C1.82961 7.06137 1.71964 6.84143 1.71964 6.54295C1.71964 6.18163 1.89244 5.88317 2.23806 5.6161C2.42656 5.47472 2.50511 5.27835 2.38729 5.04272C2.19877 4.68925 2.10452 4.5243 2.10452 4.24938C2.10452 3.8488 2.36372 3.53462 2.91356 3.25183C3.08636 3.15758 3.12562 3.0162 3.04709 2.8434C2.86642 2.37997 2.84286 2.30928 2.84286 2.11292C2.84286 1.7516 3.10206 1.46097 3.65189 1.31959C4.09961 1.20177 4.81439 1.15464 5.67841 1.15464H6.65239C9.88852 1.16249 12.0407 3.00048 12.0407 5.55327ZM15.3004 5.51398C15.3004 7.46195 14.2479 9.05645 13.0854 9.05645C12.8576 9.05645 12.6298 9.05645 12.402 9.05645C12.9597 7.99607 13.2032 6.89642 13.2032 5.57683C13.2032 4.17083 12.7005 2.9455 11.7972 2.0108C12.1271 2.0108 12.4649 2.0108 12.8026 2.0108C14.13 2.0108 15.3004 3.6053 15.3004 5.51398Z" fill="#72777D" fill-opacity="0.85"/>
</g>
<defs>
<clipPath id="clip0_5275_9284">
<rect width="16" height="17.1153" fill="white" transform="translate(0.462891)"/>
</clipPath>
</defs>
</svg>
