<svg width="16" height="18" viewBox="0 0 16 18" fill="none" xmlns="http://www.w3.org/2000/svg">
<g clip-path="url(#clip0_5275_9275)">
<path d="M0 11.652C0 14.189 1.65733 16.3256 3.66028 16.3256H6.16593C7.16347 16.8518 8.3731 17.1581 9.7241 17.1581H10.7766C11.7192 17.1581 12.5361 17.1032 13.0781 16.9695C14.1306 16.7104 14.7904 15.9799 14.7904 15.0531C14.7904 14.8567 14.759 14.6839 14.7118 14.5111C15.2302 14.1184 15.5209 13.545 15.5209 12.9166C15.5209 12.6103 15.458 12.3039 15.3481 12.0604C15.7015 11.6991 15.8979 11.1728 15.8979 10.623C15.8979 10.2696 15.8115 9.89253 15.6623 9.61761C15.8743 9.31128 16 8.87928 16 8.42371C16 7.29263 15.1124 6.3972 13.9814 6.3972H11.1144C10.9416 6.3972 10.8316 6.31865 10.8316 6.16941C10.8316 5.35253 12.1198 3.43598 12.1198 1.89646C12.1198 0.836081 11.3815 0.0820312 10.3682 0.0820312C9.622 0.0820312 9.1193 0.466911 8.62445 1.40947C7.70545 3.17678 6.6058 4.76343 4.81492 6.94703H3.37752C1.5081 6.94703 0 9.05993 0 11.652ZM4.42218 11.6127C4.42218 9.97108 4.79137 8.92641 5.81247 7.55183C6.9514 6.02803 8.53018 4.20575 9.66912 1.9436C9.95188 1.3702 10.1404 1.24452 10.4153 1.24452C10.7374 1.24452 10.9573 1.47231 10.9573 1.89646C10.9573 3.1218 9.66912 4.9755 9.66912 6.16941C9.66912 7.03343 10.3761 7.5597 11.2793 7.5597H13.9814C14.4683 7.5597 14.8375 7.92886 14.8375 8.42371C14.8375 8.78503 14.7197 9.01281 14.4291 9.31128C14.2877 9.43696 14.272 9.59406 14.3898 9.7433C14.6333 10.1046 14.7354 10.3245 14.7354 10.623C14.7354 10.9765 14.5705 11.2828 14.2248 11.542C14.0363 11.6913 13.9578 11.8876 14.0678 12.1233C14.2641 12.4767 14.3584 12.6417 14.3584 12.9166C14.3584 13.3172 14.0992 13.6235 13.5493 13.9063C13.3765 14.0084 13.3373 14.1498 13.408 14.3147C13.5965 14.786 13.62 14.8567 13.62 15.0531C13.62 15.4144 13.353 15.705 12.8031 15.8464C12.3554 15.9563 11.6407 16.0035 10.7845 16.0035H9.8105C6.57437 16.0035 4.42218 14.1655 4.42218 11.6127ZM1.16249 11.652C1.16249 9.69616 2.21502 8.10951 3.37752 8.10951C3.6053 8.10951 3.83308 8.10951 4.06087 8.10951C3.50318 9.16205 3.2597 10.2617 3.2597 11.5891C3.2597 12.9951 3.7624 14.2205 4.66568 15.1552C4.32793 15.1552 3.99803 15.1552 3.66028 15.1552C2.33285 15.1552 1.16249 13.5528 1.16249 11.652Z" fill="#72777D" fill-opacity="0.85"/>
</g>
<defs>
<clipPath id="clip0_5275_9275">
<rect width="16" height="17.5395" fill="white" transform="translate(0 0.0820312)"/>
</clipPath>
</defs>
</svg>
